<?xml version="1.0" encoding="UTF-8" standalone="no"?>
<!-- Created with Inkscape (http://www.inkscape.org/) -->

<svg
   width="512"
   height="512"
   viewBox="0 0 512 512"
   version="1.1"
   id="svg1"
   inkscape:version="1.4.3 (0d15f75042, 2025-12-25)"
   sodipodi:docname="marker.svg"
   xmlns:inkscape="http://www.inkscape.org/namespaces/inkscape"
   xmlns:sodipodi="http://sodipodi.sourceforge.net/DTD/sodipodi-0.dtd"
   xmlns="http://www.w3.org/2000/svg"
   xmlns:svg="http://www.w3.org/2000/svg">
  <sodipodi:namedview
     id="namedview1"
     pagecolor="#ffffff"
     bordercolor="#000000"
     borderopacity="0.25"
     inkscape:showpageshadow="2"
     inkscape:pageopacity="0.0"
     inkscape:pagecheckerboard="0"
     inkscape:deskcolor="#d1d1d1"
     inkscape:document-units="px"
     showgrid="true"
     inkscape:zoom="0.55173664"
     inkscape:cx="0"
     inkscape:cy="425.02162"
     inkscape:window-width="1920"
     inkscape:window-height="1008"
     inkscape:window-x="0"
     inkscape:window-y="0"
     inkscape:window-maximized="1"
     inkscape:current-layer="layer1">
    <inkscape:grid
       id="grid1"
       units="px"
       originx="0"
       originy="0"
       spacingx="32"
       spacingy="32"
       empcolor="#0099e5"
       empopacity="0.30196078"
       color="#0099e5"
       opacity="0.14901961"
       empspacing="4"
       enabled="true"
       visible="true" />
  </sodipodi:namedview>
  <defs
     id="defs1" />
  <g
     inkscape:label="Layer 1"
     inkscape:groupmode="layer"
     id="layer1">
    <path
       id="path2"
       style="fill:#2cff50;stroke:#000000;stroke-width:3;fill-opacity:1"
       d="M 256 32 A 128 128 0 0 0 128 160 A 128 128 0 0 0 137.34375 208.00781 L 225.95703 427.02148 A 32 32 0 0 0 256 448 A 32 32 0 0 0 286.04297 427.02148 L 374.65625 208.00781 A 128 128 0 0 0 384 160 A 128 128 0 0 0 256 32 z M 256 64 A 96 96 0 0 1 352 160 A 96 96 0 0 1 348.72852 184.85156 A 96 96 0 0 1 339.13477 208.00781 A 96 96 0 0 1 256 256 A 96 96 0 0 1 172.86523 208.00781 A 96 96 0 0 1 163.27148 184.85156 A 96 96 0 0 1 160 160 A 96 96 0 0 1 160.82227 147.46875 A 96 96 0 0 1 256 64 z " />
  </g>
</svg>
